<svg id="MILKSHAKE_icon" data-name="MILKSHAKE icon" xmlns="http://www.w3.org/2000/svg" xmlns:xlink="http://www.w3.org/1999/xlink" width="83.868" height="121.861" viewBox="0 0 83.868 121.861">
  <defs>
    <linearGradient id="linear-gradient" x1="0.5" x2="0.5" y2="1" gradientUnits="objectBoundingBox">
      <stop offset="0" stop-color="#e90001"/>
      <stop offset="1" stop-color="#fe006b"/>
    </linearGradient>
  </defs>
  <path id="Path_26" data-name="Path 26" d="M835.959,64.178a5.1,5.1,0,0,0-2.832-4.484s-.005,0-.011-.006a83.419,83.419,0,0,0-24.3-8.679l6.358-9.621h15.769a5.064,5.064,0,0,0,0-10.128H812.489a5.007,5.007,0,0,0-4.177,2.256L797.6,49.727a81.521,81.521,0,0,0-42.651,9.963s-.005,0-.011.006a5.123,5.123,0,0,0-2.791,5.262c.036.5,18.455,74.487,18.557,75.016a5.053,5.053,0,0,0,2.625,3.3l18.457,9.312a4.983,4.983,0,0,0,4.492,0l18.457-9.312a5.052,5.052,0,0,0,2.625-3.3l18.457-74.487A5.13,5.13,0,0,0,835.959,64.178ZM790.923,59.83l-1.066,1.616c-3.476,5.716,4.436,11.069,8.354,5.618l4.472-6.769a70.148,70.148,0,0,1,16.655,4.153L794.031,77.213l-25.3-12.765A70.44,70.44,0,0,1,790.923,59.83Zm17.257,75.423-14.148,7.136-14.145-7.136-15.25-61.543,27.151,13.7a4.977,4.977,0,0,0,4.489,0l27.151-13.7Z" transform="translate(-752.097 -31.26)" fill="url(#linear-gradient)"/>
</svg>
